<?xml version="1.0" encoding="UTF-8"?>
<svg xmlns="http://www.w3.org/2000/svg" xmlns:xlink="http://www.w3.org/1999/xlink" width="477.88pt" height="304.1pt" viewBox="0 0 477.88 304.1" version="1.1">
<defs>
<clipPath id="clip1">
  <path d="M 56 0 L 300 0 L 300 304.101563 L 56 304.101563 Z M 56 0 "/>
</clipPath>
<clipPath id="clip2">
  <path d="M 327 0 L 477.878906 0 L 477.878906 304 L 327 304 Z M 327 0 "/>
</clipPath>
</defs>
<g id="surface1">
<path style=" stroke:none;fill-rule:nonzero;fill:rgb(0%,0%,0%);fill-opacity:1;" d="M 4.039063 89.386719 L 12.664063 89.386719 L 12.664063 299.71875 L 4.039063 299.71875 Z M 16.703125 24.753906 C 16.703125 30.011719 13.5 33.902344 8.007813 33.902344 C 3.433594 33.902344 0 30.011719 0 24.753906 C 0 19.71875 3.660156 15.601563 8.464844 15.601563 C 13.5 15.601563 16.703125 19.71875 16.703125 24.753906 "/>
<g clip-path="url(#clip1)" clip-rule="nonzero">
<path style=" stroke:none;fill-rule:nonzero;fill:rgb(0%,0%,0%);fill-opacity:1;" d="M 65.726563 152.046875 C 65.726563 232.453125 104.691406 294.914063 176.527344 294.914063 C 248.859375 294.914063 290.34375 230.53125 290.34375 151.132813 C 290.34375 77.503906 257.101563 10.3125 181.25 10.3125 C 105.398438 10.3125 65.726563 73.574219 65.726563 152.046875 M 299.421875 149.855469 C 299.421875 255.898438 240.554688 304.097656 176.117188 304.097656 C 110.292969 304.097656 56.988281 251.957031 56.988281 154.242188 C 56.988281 53.898438 112.148438 -0.00390625 180.753906 -0.00390625 C 247.96875 -0.00390625 299.421875 53.015625 299.421875 149.855469 "/>
</g>
<g clip-path="url(#clip2)" clip-rule="nonzero">
<path style=" stroke:none;fill-rule:nonzero;fill:rgb(0%,0%,0%);fill-opacity:1;" d="M 331.066406 276.925781 C 345.527344 286.566406 370.496094 295.878906 391.964844 295.878906 C 432.71875 295.878906 468.960938 267.367188 468.960938 225.40625 C 468.960938 186.464844 444.816406 166.144531 403.828125 148.691406 C 367.144531 133.070313 334.160156 116.117188 334.160156 74.488281 C 334.160156 31.109375 368.335938 0.433594 414.78125 0.433594 C 439.761719 0.433594 458.601563 7.445313 467.367188 13.578125 L 463.878906 21.144531 C 456.429688 15.890625 436.300781 9.191406 414.394531 9.191406 C 365.304688 9.191406 343.921875 46.285156 343.921875 73.59375 C 343.921875 111.308594 373.15625 123.917969 410.84375 141.882813 C 454.660156 163.355469 477.882813 182.28125 477.882813 223.476563 C 477.882813 267.734375 446.335938 303.660156 390.246094 303.660156 C 367.019531 303.660156 340.292969 295.773438 327.148438 285.695313 "/>
</g>
</g>
</svg>
